<?xml version="1.0" standalone="no"?><!DOCTYPE svg PUBLIC "-//W3C//DTD SVG 1.1//EN" "http://www.w3.org/Graphics/SVG/1.1/DTD/svg11.dtd"><svg t="1725645614793" class="icon" viewBox="0 0 1024 1024" version="1.1" xmlns="http://www.w3.org/2000/svg" p-id="3368" width="16" height="16" xmlns:xlink="http://www.w3.org/1999/xlink"><path d="M512 512m-512 0a512 512 0 1 0 1024 0 512 512 0 1 0-1024 0Z" fill="#F79300" p-id="3369"></path><path d="M318.72 330.538667h369.024c25.173333 0 45.781333 20.138667 46.122667 44.8l-230.570667 126.506666L272.810667 375.466667A45.653333 45.653333 0 0 1 318.72 330.538667zM272.810667 423.893333l-0.213334 223.786667c0 24.917333 20.736 45.269333 46.122667 45.269333h369.024c25.386667 0 46.122667-20.352 46.122667-45.269333V423.808l-225.109334 120.618667a11.562667 11.562667 0 0 1-11.050666 0L272.810667 423.893333z" fill="#FFFFFF" p-id="3370"></path></svg>