<?xml version="1.0" standalone="no"?><!DOCTYPE svg PUBLIC "-//W3C//DTD SVG 1.1//EN" "http://www.w3.org/Graphics/SVG/1.1/DTD/svg11.dtd"><svg t="1725645734587" class="icon" viewBox="0 0 1024 1024" version="1.1" xmlns="http://www.w3.org/2000/svg" p-id="3989" width="16" height="16" xmlns:xlink="http://www.w3.org/1999/xlink"><path d="M512 512m-469.333333 0a469.333333 469.333333 0 1 0 938.666666 0 469.333333 469.333333 0 1 0-938.666666 0Z" fill="#FFFFFF" p-id="3990"></path><path d="M679.424 746.837333l83.882667-395.946666c7.424-34.986667-12.544-48.64-35.413334-40.106667l-493.568 190.293333c-33.792 13.141333-33.194667 32.085333-5.717333 40.618667l126.293333 39.424 293.205334-184.576c13.653333-9.130667 26.282667-4.010667 16.042666 5.12l-237.226666 214.272-9.216 130.389333a32.085333 32.085333 0 0 0 25.6-12.629333l61.696-59.392 128 94.293333c23.466667 13.141333 40.106667 6.229333 46.336-21.76h0.085333zM1024 512A512 512 0 1 1 0 512a512 512 0 0 1 1024 0z" fill="#019BE5" p-id="3991"></path></svg>